<?xml version="1.0" encoding="UTF-8"?>
<svg width="422px" height="140px" viewBox="0 0 422 140" version="1.1" xmlns="http://www.w3.org/2000/svg" xmlns:xlink="http://www.w3.org/1999/xlink" xmlns:sketch="http://www.bohemiancoding.com/sketch/ns">
    <!-- Generator: Sketch 3.4.2 (15855) - http://www.bohemiancoding.com/sketch -->
    <title>Group</title>
    <desc>Created with Sketch.</desc>
    <defs></defs>
    <g id="Page-1" stroke="none" stroke-width="1" fill="none" fill-rule="evenodd" sketch:type="MSPage">
        <g id="Group" sketch:type="MSLayerGroup">
            <path d="M103.17,108.67 C87.5677701,110.492649 76.2107189,124.343035 77.48,140 C95.9693973,138.270345 113.018609,129.280041 124.89,115 C118.799583,110.047853 110.967331,107.765249 103.17,108.67 L103.17,108.67 Z" id="Shape" fill="#00C9E5" sketch:type="MSShapeGroup"></path>
            <path d="M19.7,101.33 C18.585242,91.7289365 11.2386266,84.0313162 1.7,82.47 C3.83296966,94.4194754 9.03657035,105.60894 16.8,114.94 C19.2458194,110.849129 20.2657329,106.062569 19.7,101.33 L19.7,101.33 Z" id="Shape" fill="#F8F3FF" sketch:type="MSShapeGroup"></path>
            <path d="M45.7,91.8 L22.06,120.6 C32.2563188,130.471413 45.2122825,137.010425 59.21,139.35 L77.09,117.56 L45.7,91.8 Z" id="Shape" fill="#FF27B7" sketch:type="MSShapeGroup"></path>
            <path d="M102.94,101.65 L132.22,104.3 C138.086365,93.8211156 141.158151,82.0092015 141.14,70 C141.138078,66.0323248 140.803574,62.0717925 140.14,58.16 L107.14,55.16 L102.94,101.65 Z" id="Shape" fill="#FFEE4D" sketch:type="MSShapeGroup"></path>
            <path d="M106.55,9.49 C97.4035031,4.08262036 87.1423618,0.836679343 76.55,-2.13162821e-14 L79.66,15.06 L106.55,9.49 Z" id="Shape" fill="#FF27B7" sketch:type="MSShapeGroup"></path>
            <path d="M138.12,49.64 C135.228724,40.0990695 130.332831,31.2857803 123.76,23.79 L122.55,48.89 L138.12,49.64 Z" id="Shape" fill="#F8F3FF" sketch:type="MSShapeGroup"></path>
            <path d="M57.43,39 L34.1,10.12 C14.5941155,22.0799848 2.13843387,42.7934326 0.72,65.63 L10.1,77.24 L57.43,39 Z" id="Shape" fill="#00C9E5" sketch:type="MSShapeGroup"></path>
            <circle id="Oval" fill="#F8F3FF" sketch:type="MSShapeGroup" transform="translate(70.856486, 70.043181) rotate(-67.500000) translate(-70.856486, -70.043181) " cx="70.8564862" cy="70.0431806" r="28"></circle>
            <circle id="Oval" fill="#6024B5" sketch:type="MSShapeGroup" transform="translate(101.637827, 32.144745) rotate(-36.360000) translate(-101.637827, -32.144745) " cx="101.637827" cy="32.1447447" r="16.38"></circle>
            <path d="M50.1,19 C49.5188098,14.0181499 51.9960264,9.17678616 56.376409,6.73366089 C60.7567915,4.29053562 66.1775887,4.72684185 70.1108317,7.83910977 C74.0440747,10.9513777 75.71508,16.1266213 74.3445803,20.9513848 C72.9740807,25.7761483 68.8320069,29.3001561 63.85,29.88 C57.0488869,30.6715654 50.8934032,25.800899 50.1,19 L50.1,19 Z" id="Shape" fill="#FFEE4D" sketch:type="MSShapeGroup"></path>
            <path d="M30.67,93.56 C26.8931892,93.9998542 23.2233595,92.1210635 21.3720453,88.7998578 C19.5207311,85.478652 19.8525958,81.3692275 22.2128646,78.3881365 C24.5731333,75.4070456 28.4968909,74.1414901 32.1541763,75.1816996 C35.8114616,76.2219091 38.4818791,79.3629877 38.92,83.14 C39.5179891,88.2952256 35.8249506,92.9596451 30.67,93.56 L30.67,93.56 Z" id="Shape" fill="#6024B5" sketch:type="MSShapeGroup"></path>
            <path d="M249.13,96.31 L233.06,96.31 L233.06,43.76 L248.6,43.76 L248.6,49.76 C251.46,44.76 257.91,42.36 263.3,42.36 C276.52,42.36 282.44,51.77 282.44,63.29 L282.44,96.29 L266.37,96.29 L266.37,66.07 C266.37,60.89 263.62,56.98 257.8,56.98 C252.51,56.98 249.13,60.89 249.13,66.18 L249.13,96.31 Z" id="Shape" fill="#F8F3FF" sketch:type="MSShapeGroup"></path>
            <path d="M296,96.31 L296,43.76 L312,43.76 L312,96.31 L296,96.31 Z" id="Shape" fill="#F8F3FF" sketch:type="MSShapeGroup"></path>
            <path d="M359.51,59.62 C357.842987,59.2467017 356.138167,59.0688367 354.43,59.09 C347.98,59.09 342.17,62.9 342.17,73.37 L342.17,96.31 L326.1,96.31 L326.1,43.76 L341.64,43.76 L341.64,50.85 C344.39,44.93 351.05,43.23 355.28,43.23 C356.707211,43.2192111 358.129569,43.3974262 359.51,43.76 L359.51,59.62 Z" id="Shape" fill="#F8F3FF" sketch:type="MSShapeGroup"></path>
            <path d="M197.28,42 C185.955057,42 175.745241,48.821981 171.411373,59.2848639 C167.077505,69.7477468 169.473066,81.791046 177.48101,89.7989899 C185.488954,97.8069338 197.532253,100.202495 207.995136,95.8686269 C218.458019,91.5347589 225.28,81.3249429 225.28,70 C225.28,54.536027 212.743973,42 197.28,42 L197.28,42 Z M197.28,83 C190.100298,83 184.28,77.1797017 184.28,70 C184.28,62.8202983 190.100298,57 197.28,57 C204.459702,57 210.28,62.8202983 210.28,70 C210.28,77.1797017 204.459702,83 197.28,83 L197.28,83 Z" id="Shape" fill="#F8F3FF" sketch:type="MSShapeGroup"></path>
            <path d="M393.28,42 C377.816027,42 365.28,54.536027 365.28,70 C365.28,85.463973 377.816027,98 393.28,98 C408.743973,98 421.28,85.463973 421.28,70 C421.28,54.536027 408.743973,42 393.28,42 L393.28,42 Z M393.28,83 C386.100298,83 380.28,77.1797017 380.28,70 C380.28,62.8202983 386.100298,57 393.28,57 C400.459702,57 406.28,62.8202983 406.28,70 C406.28,77.1797017 400.459702,83 393.28,83 L393.28,83 Z" id="Shape" fill="#F8F3FF" sketch:type="MSShapeGroup"></path>
        </g>
    </g>
</svg>