<?xml version="1.0" encoding="UTF-8" standalone="no"?>
<svg viewBox="200 200 330 200" version="1.1" xmlns="http://www.w3.org/2000/svg" xmlns:svg="http://www.w3.org/2000/svg">
  <path
    fill="currentColor"
    d="M458.84,313.51h-25a1,1,0,0,0-1,.91l0,.31a94.54,94.54,0,0,1-2,9.61l-.76,2.76h0l-.34,1.18-.37,1.18-.73,2.19-.43,1.24-.87,2.28-.41,1.06-1.38,3.26h0l-.42.89h0l-1.2,2.55A97.12,97.12,0,0,1,409,364.73l-2.47,2.63-2.84,2.81-.45.41L400.63,373l-1.07.91-2.14,1.75-1.24,1-2.12,1.59-1.28.92-2.3,1.55-1.18.78-3.06,1.88-.5.3-3.66,2-1.12.56-2.65,1.3-1.41.64-2.48,1.07-1.49.61-2.55,1-1.45.53-3,1-1.08.35-4.12,1.12-.91.21-3.29.73-1.49.27-2.79.48-1.64.24-2.77.34-1.64.17-3,.22-1.42.08-4.45.11a96.56,96.56,0,0,1,0-193.12l4.46.11,1.42.08,3,.22,1.63.17,2.77.33,1.64.24,2.79.48,1.5.28,3.29.73.91.21,4.11,1.12,1.08.34,3,1,1.44.53,2.56,1,1.49.61,2.47,1.07,1.42.64,2.65,1.3,1.12.56,3.66,2,.49.3,3.07,1.88,1.18.77,2.29,1.56,1.28.92L396,223.3l.92.73h0l3.41,2.81q1.69,1.46,3.32,3l2.23,2.2a1,1,0,0,0,.72.29h32a1,1,0,0,0,.88-1.6,123.75,123.75,0,0,0-9-11.7l-3.08-3.34h0l-.95-1-1-1.06,0,0-.35-.34-.46-.48c-1.4-1.39-2.83-2.76-4.29-4.08l-.12-.1-.08-.09-.59-.5-3.68-3.19-.79-.62-.54-.46a.06.06,0,0,0,0,0l-1.15-.87-2.14-1.68L409.6,200l-1-.75-.05,0-.9-.6-1.33-.94L403.66,196l-1.21-.81-.05,0-.46-.26-.61-.4c-1.69-1-3.42-2-5.17-3l-.09,0-.07-.05c-1.1-.58-2.2-1.16-3.3-1.72l-1.31-.63-.55-.29-.49-.22-1-.48c-1.13-.53-2.26-1-3.41-1.53l-.35-.15-.21-.09-.5-.19-2.41-1-2.1-.79-.59-.23-.3-.1-.53-.2c-1.18-.42-2.38-.83-3.57-1.22l-.88-.27-.45-.15-.63-.18-1.65-.51-3.44-.94-.14,0h0l-.06,0c-1.23-.31-2.47-.61-3.71-.89l-1.53-.32-.64-.14-.51-.1-1.07-.22c-1.26-.24-2.52-.45-3.79-.66l-.45-.06-.26-.05-.59-.07L353,177.6l-2.42-.27-.63-.08-.29,0-.53-.05c-1.29-.13-2.59-.23-3.9-.31l-1-.05-.52,0H343l-1.71-.08c-1.32,0-2.63-.07-4-.07a123.42,123.42,0,0,0,0,246.83c1.33,0,2.65,0,4-.07l.85,0h.55l.84-.05,1.69-.08,1.91-.16L348,423l.45-.05.68-.05c1.29-.12,2.58-.26,3.86-.43l.14,0h.1l.48-.07,3.11-.44,1-.17.6-.1.77-.15,1.44-.25,2.08-.43.82-.16.35-.08.51-.1c1.24-.27,2.48-.57,3.7-.89l.27-.07.19,0,.66-.19,2.54-.69,1.1-.34.64-.18.69-.23,1.19-.36,2.26-.77.72-.24.24-.09.35-.12c1.18-.42,2.35-.86,3.52-1.31l.38-.16.27-.11.72-.3,2.09-.86,1.19-.53.67-.29.58-.27,1-.44,2.46-1.19.55-.26.15-.07.2-.1c1.11-.56,2.21-1.13,3.3-1.72l.31-.18.5-.27c1.47-.8,2.92-1.65,4.36-2.51l.78-.5.44-.26a.1.1,0,0,0,.05,0l.8-.52L405.4,403l2.39-1.65.76-.51.06,0,.32-.24.59-.41c1.36-1,2.69-2,4-3l.59-.48.35-.26.05,0,.71-.6,2.17-1.78,2-1.76.71-.61,0,0,.36-.35.65-.57q1.83-1.69,3.59-3.47l.43-.44.25-.25.05,0,.59-.65,2.14-2.23,1.6-1.8.64-.69,0-.05.36-.44.68-.76c1.07-1.27,2.13-2.56,3.16-3.88l.27-.37.17-.21a.11.11,0,0,0,0,0l.46-.64,2-2.73,1.24-1.81.57-.78.48-.73.55-.81a122.73,122.73,0,0,0,13.4-27.12l.1-.28h0l0-.07.48-1.51,1-3,.11-.38.11-.35.45-1.69.71-2.53.12-.52.17-.59.72-3.24.16-.69h0l.33-1.51c.37-1.82.7-3.66,1-5.51l.53-4.13A1,1,0,0,0,458.84,313.51Zm-81.58-30.35,1.09,3h27.79l-.05-.27a69.89,69.89,0,0,0-10.55-25.1l-1.15-1.6H351.77l.48.16A43.47,43.47,0,0,1,377.26,283.16Zm18.28,56.09a69.67,69.67,0,0,0,10.55-25.09l.08-.54H378.44l-1.19,3.25a43.47,43.47,0,0,1-23.05,23.05l-1.69.67h42.07ZM487,284.73l.15,2h26.73v-.22a177.72,177.72,0,0,0-3.08-22.06l-1.09-4.69H482.28l.79,2.77A150.49,150.49,0,0,1,487,284.73Zm.15,28.74-.15,2a149.19,149.19,0,0,1-4,22.22l-.77,2.71h27.45l1.07-4.62a174.28,174.28,0,0,0,3.08-22.06l0-.29ZM454,259.6l-.16-.42h-29l.6,1.25a96.14,96.14,0,0,1,7.3,24.77l.15,1.23H460l-.68-5.31A122.38,122.38,0,0,0,454,259.6Z" />
</svg>
