<?xml version="1.0" encoding="utf-8"?>
<!-- Generator: Adobe Illustrator 26.2.1, SVG Export Plug-In . SVG Version: 6.00 Build 0)  -->
<svg version="1.1" id="Layer_1" xmlns="http://www.w3.org/2000/svg" xmlns:xlink="http://www.w3.org/1999/xlink" x="0px" y="0px"
	 viewBox="0 0 1000 59.5" style="enable-background:new 0 0 1000 59.5;" xml:space="preserve">
<style type="text/css">
	.st0{fill:#FFFFFF;}
	.st1{fill:#FFFFFF;enable-background:new    ;}
</style>
<g>
	<path class="st0" d="M71.9,1.2h45.3v4.6h-20v52.5h-5.4V5.8H71.9V1.2z"/>
	<path class="st0" d="M122.5,1.2h5.4V26h33.9V1.2h5.4v57.1h-5.4V30.6H128v27.7h-5.4L122.5,1.2L122.5,1.2z"/>
	<path class="st0" d="M178.9,1.2h39.4v4.6h-34v20.6h31.8V31h-31.8v22.6h34.4v4.6h-39.8L178.9,1.2L178.9,1.2z"/>
</g>
<g>
	<path class="st0" d="M520.4,1.2h36.2v4.6h-30.8v20.6h27.4V31h-27.4v27.2h-5.4V1.2z"/>
	<path class="st0" d="M587.3,0c17.9,0,26.9,14.1,26.9,29.8s-9,29.8-26.9,29.8c-18,0-27-14.1-27-29.8C560.4,14.1,569.3,0,587.3,0z
		 M587.3,54.9c15,0,21.4-12.6,21.4-25.1s-6.4-25.1-21.4-25.1c-15.1,0-21.5,12.6-21.5,25.1C565.8,42.2,572.2,54.9,587.3,54.9z"/>
	<path class="st0" d="M622.1,1.2h5.4v35.4c0,13.2,6.2,18.3,16.7,18.3c10.6,0,16.8-5.1,16.8-18.3V1.2h5.4v36.6
		c0,11.8-6.3,21.8-22.2,21.8c-15.8,0-22.2-10-22.2-21.8L622.1,1.2L622.1,1.2z"/>
	<path class="st0" d="M677.4,1.2h6.1l33.3,48.3h0.2V1.2h5.4v57.1h-6.1L683,10h-0.2v48.3h-5.4L677.4,1.2L677.4,1.2z"/>
	<path class="st0" d="M733.8,1.2h19.8c17.3,0.4,26.2,9.7,26.2,28.6s-9,28.2-26.2,28.6h-19.8V1.2z M739.3,53.7h11.6
		c16.4,0,23.5-6.8,23.5-23.9s-7.1-23.9-23.5-23.9h-11.6V53.7z"/>
	<path class="st0" d="M805.3,1.2h6.1l22.4,57.1H828l-7-17.8h-26l-6.9,17.8h-5.8L805.3,1.2z M796.7,35.9h22.5l-11-29.3L796.7,35.9z"
		/>
	<path class="st0" d="M827.4,1.2h45.3v4.6h-19.9v52.5h-5.4V5.8h-19.9L827.4,1.2L827.4,1.2z"/>
	<path class="st0" d="M878.5,1.2h5.4v57.1h-5.4V1.2z"/>
	<path class="st0" d="M919.8,0c17.9,0,26.9,14.1,26.9,29.8s-9,29.8-26.9,29.8c-18,0-27-14.1-27-29.8S901.8,0,919.8,0z M919.8,54.9
		c15,0,21.4-12.6,21.4-25.1s-6.4-25.1-21.4-25.1c-15.1,0-21.5,12.6-21.5,25.1C898.2,42.2,904.6,54.9,919.8,54.9z"/>
	<path class="st0" d="M955,1.2h6.1l33.3,48.3h0.2V1.2h5.4v57.1h-6.1L960.6,10h-0.2v48.3H955V1.2z"/>
</g>
<g>
	<path class="st0" d="M233.8,1.2h17.5v42.3h25.2v14.6h-42.7V1.2z"/>
	<path class="st0" d="M287.9,1.2h17.5v56.9h-17.5V1.2z"/>
	<path class="st0" d="M318.5,1.2h17.9L353,31.6h0.2V1.2h16.6v56.9h-17L335.2,27H335v31.1h-16.6V1.2H318.5z"/>
	<path class="st0" d="M434.5,36.1c0,15.9-8.4,23.3-25.9,23.3s-26-7.5-26-23.3V1.2h17.5v31c0,5.7-0.1,13.1,8.5,13.1
		c8.3,0,8.3-7.3,8.3-13.1v-31h17.5v34.9H434.5z"/>
	<path class="st0" d="M462.3,27.8L443.6,1.2h20.5l8.6,15.5l8.4-15.5h19.4L482.4,28l20.3,30.1h-21.1l-9.7-17l-10,17h-20.1L462.3,27.8
		z"/>
</g>
<polygon class="st1" points="11.4,46.9 11.4,24.1 0,24.1 0,58.3 34.3,58.3 34.3,46.9 "/>
<polygon class="st0" points="57.1,1.2 0,1.2 0,18.3 11.4,18.3 11.4,12.7 45.7,12.7 45.7,46.9 40,46.9 40,58.3 57.1,58.3 "/>
</svg>
