<svg width="240" height="48" viewBox="0 0 240 48" fill="none" xmlns="http://www.w3.org/2000/svg">
<g clip-path="url(#clip0_443_3620)">
<path d="M55.0478 0.932373H63.3237V1.78402H59.693V11.3384H58.7052V1.7574H55.0745L55.0478 0.932373Z" fill="white"/>
<path d="M64.3115 0.932373H65.2992V5.45672H71.4928V0.932373H72.4805V11.3384H71.4928V6.28175H65.2992V11.3118H64.3115V0.932373Z" fill="white"/>
<path d="M74.5895 0.932373H81.7975V1.78402H75.5773V5.53656H81.3971V6.38821H75.5773V10.4867H81.8509V11.3384H74.5628L74.5895 0.932373Z" fill="white"/>
<path d="M55.0478 37.3401H61.6685V38.1917H56.0623V41.9443H61.0545V42.7959H56.0623V47.7461H55.0745V37.3401H55.0478Z" fill="white"/>
<path d="M67.4616 37.2603C70.6118 37.2603 72.2136 39.7353 72.2136 42.5032C72.2136 45.271 70.6385 47.7461 67.4616 47.7461C64.2848 47.7461 62.7097 45.271 62.7097 42.5032C62.7097 39.7353 64.2848 37.2603 67.4616 37.2603ZM67.4616 46.9211C70.1046 46.9211 71.2525 44.6855 71.2525 42.5032C71.2525 40.3208 70.1313 38.0853 67.4616 38.0853C64.792 38.0853 63.6708 40.3208 63.6708 42.5032C63.6441 44.7121 64.792 46.9211 67.4616 46.9211Z" fill="white"/>
<path d="M73.7887 37.3135H74.7764V43.621C74.7764 45.9896 75.871 46.8945 77.7664 46.8945C79.6619 46.8945 80.7831 45.9896 80.7831 43.621V37.3135H81.7709V43.8605C81.7709 45.963 80.6496 47.7461 77.7931 47.7461C74.9633 47.7461 73.8154 45.963 73.8154 43.8605V37.3135H73.7887Z" fill="white"/>
<path d="M83.7464 37.3401H84.8676L90.9544 46.1493H90.9811V37.3401H91.9689V47.7461H90.8476L84.7609 38.9369H84.7342V47.7461H83.7464V37.3401Z" fill="white"/>
<path d="M94.0779 37.3401H97.6819C100.832 37.4199 102.487 39.0966 102.487 42.5564C102.487 45.9896 100.859 47.6929 97.6819 47.7727H94.0779V37.3401ZM95.0656 46.8944H97.1747C100.165 46.8944 101.473 45.6436 101.473 42.5298C101.473 39.416 100.165 38.1651 97.1747 38.1651H95.0656V46.8944Z" fill="white"/>
<path d="M107.132 37.3401H108.254L112.338 47.7461H111.27L109.989 44.4992H105.237L103.982 47.7461H102.914L107.132 37.3401ZM105.557 43.6476H109.669L107.64 38.3248L105.557 43.6476Z" fill="white"/>
<path d="M111.19 37.3401H119.466V38.1917H115.835V47.7461H114.848V38.1917H111.217L111.19 37.3401Z" fill="white"/>
<path d="M120.507 37.3401H121.495V47.7461H120.507V37.3401Z" fill="white"/>
<path d="M127.849 37.3401C130.999 37.3401 132.574 39.7886 132.574 42.5298C132.574 45.271 130.999 47.7195 127.849 47.7195C124.699 47.7195 123.123 45.271 123.123 42.5298C123.123 39.7886 124.699 37.3401 127.849 37.3401ZM127.849 46.9211C130.492 46.9211 131.613 44.7121 131.613 42.5298C131.613 40.3474 130.492 38.1385 127.849 38.1385C125.206 38.1385 124.085 40.3474 124.085 42.5298C124.085 44.7121 125.206 46.9211 127.849 46.9211Z" fill="white"/>
<path d="M134.496 37.3401H135.617L141.704 46.1493H141.731V37.3401H142.719V47.7461H141.597L135.511 38.9369H135.484V47.7461H134.496V37.3401Z" fill="white"/>
<path d="M55.0478 14.4255H60.7876V28.2647H69.0367V33.0286H55.0211L55.0478 14.4255Z" fill="white"/>
<path d="M72.8276 14.4255H78.5673V33.0286H72.8276V14.4255Z" fill="white"/>
<path d="M82.8654 14.4255H88.7386L94.1847 24.3791H94.2381V14.4255H99.6841V33.0286H94.0779L88.3649 22.8621H88.3115V33.0286H82.8654V14.4255Z" fill="white"/>
<path d="M120.507 25.5501C120.507 30.6067 117.838 33.002 112.231 33.002C106.625 33.002 103.929 30.6067 103.929 25.5501V14.4255H109.535V24.2993C109.535 26.1356 109.508 28.4776 112.258 28.4776C114.901 28.4776 114.901 26.1356 114.901 24.2993V14.4255H120.507V25.5501Z" fill="white"/>
<path d="M130.065 23.1283L123.924 14.4255H130.679L133.508 19.4822L136.285 14.4255H142.665L136.685 23.1815L143.359 33.0286H136.445L133.268 27.4663L129.984 33.0286H123.39L130.065 23.1283Z" fill="white"/>
<path d="M9.4238 38.2715V19.5088H0V47.6396H28.2447V38.2715H9.4238Z" fill="white"/>
<path d="M47.0389 0.746094H0V14.8248H9.4238V10.1674H37.6418V38.2716H32.9433V47.6396H47.0389V0.746094Z" fill="white"/>
<path d="M155.907 0.825928H155.159V47.6396H155.907V0.825928Z" fill="white"/>
<path d="M179.88 15.8628V17.2467H169.682V23.4211H179.239V24.805H169.682V31.5649H180.013V32.9489H168.053V15.8628H179.88Z" fill="white"/>
<path d="M190.665 32.9755V30.74H190.612C190.211 31.565 189.624 32.2037 188.877 32.6562C188.102 33.082 187.275 33.3215 186.34 33.3215C185.566 33.3215 184.899 33.215 184.338 33.0021C183.778 32.7892 183.324 32.4699 183.003 32.0706C182.656 31.6714 182.416 31.1924 182.256 30.6069C182.096 30.0214 182.016 29.3827 182.016 28.6375V20.6267H183.537V28.6641C183.564 29.7819 183.831 30.6335 184.311 31.1924C184.792 31.7779 185.646 32.044 186.848 32.044C187.515 32.044 188.076 31.911 188.529 31.6182C188.983 31.3521 189.384 30.9795 189.677 30.5004C189.971 30.048 190.211 29.5157 190.345 28.9036C190.478 28.2915 190.558 27.706 190.558 27.0673V20.6267H192.08V32.9755H190.665Z" fill="white"/>
<path d="M196.298 20.6267V23.5276H196.352C196.725 22.5163 197.339 21.7445 198.14 21.2122C198.941 20.6799 199.902 20.4138 201.023 20.467V21.984C200.329 21.9574 199.715 22.0372 199.155 22.2501C198.594 22.463 198.113 22.7824 197.713 23.1816C197.313 23.5808 196.992 24.0599 196.752 24.6188C196.538 25.1777 196.405 25.7632 196.405 26.4285V33.0287H194.883V20.6267H196.298Z" fill="white"/>
<path d="M209.806 20.7863C210.527 21.1323 211.141 21.6113 211.649 22.1968C212.156 22.7823 212.529 23.4743 212.77 24.2727C213.037 25.0711 213.144 25.8962 213.144 26.801C213.144 27.7059 213.01 28.5309 212.77 29.3293C212.503 30.1278 212.129 30.8197 211.649 31.4052C211.141 31.9907 210.527 32.4698 209.806 32.8157C209.086 33.1617 208.231 33.3214 207.297 33.3214C206.363 33.3214 205.508 33.1617 204.788 32.8157C204.067 32.4698 203.453 32.0173 202.946 31.4052C202.438 30.8197 202.065 30.1278 201.824 29.3293C201.557 28.5309 201.451 27.7059 201.451 26.801C201.451 25.8962 201.584 25.0711 201.824 24.2727C202.091 23.4743 202.465 22.7823 202.946 22.1968C203.453 21.6113 204.067 21.1323 204.788 20.7863C205.508 20.4403 206.363 20.254 207.297 20.254C208.231 20.254 209.059 20.4403 209.806 20.7863ZM205.375 21.9839C204.841 22.2767 204.387 22.6759 204.013 23.1815C203.64 23.6872 203.373 24.2461 203.186 24.8582C202.999 25.4969 202.919 26.1357 202.919 26.7744C202.919 27.4398 202.999 28.0785 203.186 28.6906C203.373 29.3293 203.64 29.8882 204.013 30.3673C204.36 30.8729 204.814 31.2721 205.375 31.5649C205.909 31.8577 206.55 32.0173 207.27 32.0173C207.991 32.0173 208.632 31.8577 209.166 31.5649C209.7 31.2721 210.154 30.8729 210.527 30.3673C210.901 29.8616 211.168 29.3027 211.355 28.6906C211.542 28.0519 211.622 27.4131 211.622 26.7744C211.622 26.1091 211.542 25.4703 211.355 24.8582C211.168 24.2195 210.901 23.6606 210.527 23.1815C210.18 22.6759 209.726 22.2767 209.166 21.9839C208.632 21.6912 207.991 21.5315 207.27 21.5315C206.55 21.5315 205.935 21.6912 205.375 21.9839Z" fill="white"/>
<path d="M216.801 20.6266V22.9686H216.854C217.201 22.117 217.789 21.4516 218.563 20.9726C219.364 20.4936 220.245 20.254 221.259 20.254C222.194 20.254 223.021 20.4403 223.715 20.7863C224.409 21.1323 224.997 21.6113 225.451 22.2234C225.904 22.809 226.251 23.5275 226.492 24.2993C226.705 25.0977 226.839 25.9228 226.839 26.801C226.839 27.6793 226.732 28.5043 226.492 29.3027C226.278 30.1011 225.931 30.7931 225.451 31.3786C224.997 31.9641 224.409 32.4432 223.715 32.7891C223.021 33.1351 222.194 33.2948 221.259 33.2948C220.805 33.2948 220.352 33.2416 219.924 33.1351C219.471 33.0287 219.07 32.869 218.67 32.6295C218.296 32.4165 217.949 32.1238 217.655 31.7778C217.362 31.4318 217.121 31.0592 216.961 30.6068H216.908V37.4998H215.386V20.6266H216.801ZM225.103 24.8848C224.943 24.2461 224.703 23.6872 224.383 23.2082C224.062 22.7025 223.635 22.3033 223.128 22.0105C222.621 21.6912 222.007 21.5315 221.286 21.5315C220.458 21.5315 219.764 21.6646 219.204 21.9573C218.643 22.2501 218.189 22.6227 217.869 23.1017C217.522 23.5808 217.308 24.1396 217.148 24.7784C217.014 25.4171 216.934 26.0825 216.934 26.801C216.934 27.4398 217.014 28.0785 217.175 28.7172C217.335 29.356 217.575 29.9148 217.922 30.3939C218.269 30.8996 218.723 31.2988 219.257 31.5915C219.791 31.8843 220.485 32.0706 221.286 32.0706C222.007 32.0706 222.621 31.9109 223.128 31.5915C223.635 31.2721 224.062 30.8729 224.383 30.3939C224.703 29.8882 224.943 29.3293 225.103 28.7172C225.264 28.0785 225.344 27.4398 225.344 26.801C225.317 26.1623 225.264 25.5236 225.103 24.8848Z" fill="white"/>
<path d="M230.309 28.9035C230.469 29.489 230.71 30.0213 231.03 30.4737C231.377 30.9262 231.778 31.3254 232.311 31.6181C232.819 31.9109 233.433 32.0706 234.153 32.0706C235.248 32.0706 236.129 31.7778 236.743 31.2189C237.357 30.6334 237.811 29.8882 238.051 28.9301H239.573C239.253 30.3407 238.665 31.4318 237.811 32.177C236.957 32.9488 235.729 33.3214 234.18 33.3214C233.192 33.3214 232.365 33.1617 231.644 32.8157C230.923 32.4698 230.363 31.9907 229.909 31.4052C229.455 30.8197 229.135 30.1011 228.921 29.3293C228.707 28.5309 228.601 27.7059 228.601 26.8276C228.601 26.0026 228.707 25.2042 228.921 24.4324C229.135 23.6606 229.482 22.942 229.909 22.3299C230.363 21.7178 230.95 21.2121 231.644 20.8395C232.365 20.4669 233.192 20.2806 234.18 20.2806C235.168 20.2806 236.022 20.4935 236.716 20.8661C237.41 21.2654 237.998 21.7976 238.425 22.4364C238.852 23.0751 239.172 23.8203 239.386 24.6719C239.573 25.4969 239.653 26.3486 239.626 27.2268H230.096C230.096 27.7591 230.149 28.318 230.309 28.9035ZM237.811 24.2727C237.624 23.7404 237.357 23.288 237.037 22.8622C236.69 22.463 236.289 22.117 235.809 21.8775C235.328 21.6379 234.794 21.5049 234.18 21.5049C233.566 21.5049 233.006 21.6379 232.525 21.8775C232.044 22.117 231.644 22.463 231.297 22.8622C230.95 23.2614 230.683 23.7404 230.496 24.2727C230.283 24.805 230.176 25.3639 230.096 25.9228H238.131C238.105 25.3639 237.998 24.805 237.811 24.2727Z" fill="white"/>
</g>
<defs>
<clipPath id="clip0_443_3620">
<rect width="240" height="47" fill="white" transform="translate(0 0.746094)"/>
</clipPath>
</defs>
</svg>
